<svg xmlns="http://www.w3.org/2000/svg" xmlns:xlink="http://www.w3.org/1999/xlink" width="100%" height="100%" id="clipboard_v62" documentRef="IDI_69il9a2"><defs /><g transform="matrix(1,0,0,1,0,0)" id="content"><g transform="matrix(1 0 0 1 27.1813 27.176)" class=""><path d="M 50.15876388549805 0 C 49.415672302246094 0 48.64073181152344 0.1592341512441635 47.90825653076172 0.4883180856704712 C 42.54737091064453 2.898061752319336 38.587745666503906 3.704848527908325 35.26506042480469 3.704848527908325 C 28.24814224243164 3.704848527908325 24.17174530029297 0.04246244579553604 16.07203483581543 0.04246244579553604 C 12.71750259399414 0.04246244579553604 8.61987590789795 0.7324771881103516 3.3969955444335938 2.505284309387207 L 3.3969955444335938 1.6984977722167969 C 3.3969955444335938 0.7643239498138428 2.632671356201172 0 1.6984977722167969 0 C 0.7643240094184875 0 1.2931877790833823e-12 0.7643239498138428 1.2931877790833823e-12 1.6984977722167969 L 1.2931877790833823e-12 53.50267791748047 C 1.2931877790833823e-12 53.969764709472656 0.3821620047092438 54.3519287109375 0.8492488861083984 54.3519287109375 L 2.5477466583251953 54.3519287109375 C 3.014833688735962 54.3519287109375 3.3969955444335938 53.969764709472656 3.3969955444335938 53.50267791748047 L 3.3969955444335938 42.844608306884766 C 8.089095115661621 41.16733932495117 12.059334754943848 40.50917434692383 15.551872253417969 40.50917434692383 C 24.17174530029297 40.50917434692383 30.1801815032959 44.16094207763672 38.81067657470703 44.16094207763672 C 42.5579833984375 44.16094207763672 46.78300094604492 43.47092819213867 51.94218444824219 41.50703811645508 C 53.42837142944336 40.93379592895508 54.36254119873047 39.60684585571289 54.36254119873047 38.194969177246094 L 54.36254119873047 3.545614242553711 C 54.3519287109375 1.3800294399261475 52.37742614746094 0 50.15876388549805 0 Z M 38.8000602722168 40.76394271850586 C 30.774658203125 40.76394271850586 24.681297302246094 37.112178802490234 15.541254043579102 37.112178802490234 C 11.645325660705566 37.112178802490234 7.643240928649902 37.80219268798828 3.3863799571990967 39.21406555175781 L 3.3863799571990967 6.072129726409912 C 8.269561767578125 4.299322605133057 12.441495895385742 3.439458131790161 16.061420440673828 3.439458131790161 C 23.439271926879883 3.439458131790161 27.568742752075195 7.10184383392334 35.25444412231445 7.10184383392334 C 39.479461669921875 7.10184383392334 43.93801498413086 5.9872050285339355 49.27766799926758 3.58807635307312 C 50.27553939819336 3.142220973968506 50.94431686401367 3.5349984169006348 50.94431686401367 4.18255090713501 L 50.94431686401367 38.16312026977539 C 50.859397888183594 38.42851257324219 44.70234298706055 40.76394271850586 38.8000602722168 40.76394271850586 Z " class="" transform="matrix(1 0 0 1 -27.1813 -27.176)" /><path d="M 34.207130432128906 36.904239654541016 L 13.876270294189453 15.876615524291992 " stroke="#000000" stroke-width="0.6369366645812987" transform="matrix(1 0 0 1 -13.8763 -30.9922)" class="" stroke-opacity="1" /><path d="M 13.876270294189453 36.904239654541016 L 34.65711975097656 16.31304359436035 " stroke="#000000" stroke-width="0.6369366645812987" transform="matrix(1 0 0 1 -13.8763 -30.9922)" class="" stroke-opacity="1" fill="#000000" fill-opacity="1" /></g></g></svg>